<svg xmlns="http://www.w3.org/2000/svg" x="0px" y="0px"
width="24" height="24"
viewBox="0 0 172 172"
style=" fill:#000000;"><g fill="none" fill-rule="nonzero" stroke="none" stroke-width="1" stroke-linecap="butt" stroke-linejoin="miter" stroke-miterlimit="10" stroke-dasharray="" stroke-dashoffset="0" font-family="none" font-weight="none" font-size="none" text-anchor="none" style="mix-blend-mode: normal"><path d="M0,172v-172h172v172z" fill="none"></path><g fill="#ffffff"><path d="M96.75,64.5l-28.66667,-21.5l28.66667,-21.5zM75.25,150.5l28.66667,-21.5l-28.66667,-21.5z"></path><path d="M93.16667,136.16667h-39.41667c-19.70833,0 -35.83333,-16.125 -35.83333,-35.83333v-28.66667c0,-21.14167 20.78333,-35.83333 39.41667,-35.83333v14.33333c-11.46667,0 -25.08333,9.31667 -25.08333,21.5v28.66667c0,11.825 9.675,21.5 21.5,21.5h39.41667zM118.25,136.16667v-14.33333c11.825,0 21.5,-9.675 21.5,-21.5v-28.66667c0,-11.825 -9.675,-21.5 -21.5,-21.5h-39.41667v-14.33333h39.41667c19.70833,0 35.83333,16.125 35.83333,35.83333v28.66667c0,19.70833 -16.125,35.83333 -35.83333,35.83333z"></path></g></g></svg>